:SAMPLES-PER-SECOND 30
:FULLY-SPECIFIED
:DEGREES
34
root  62.9467 39.5658 -33.8137 -163.192 -83.2318 163.314
RightUpLeg  3.66701 -9.88837 -4.50329
RightLeg  13.765 -2.62398 2.09762
RightFoot  -17.4507 -0.0637917 1.01937
RightToes  1.16414e-010 0 -3.6325e-017
Spine  4.11834 1.54559 9.39693
Spine1  11.0522 3.68518 -6.01066
HEad  -12.5177 0.0788836 -5.32803
LeftShoulder1  8.91869 -12.4417 -48.8249
LeftArm  -8.48773 17.1568 -27.0054
LeftForeArm  24.9717 -14.0195 -4.88943
LeftHand  -0.244104 0.0205437 5.32207
RightShoulder  6.58915 10.5051 40.8463
RightArm  -5.90401 -13.3723 33.398
RightForeArm  -4.55847 14.9229 6.62347
RightHand  -0.267088 -2.7027 -11.0875
LeftUpLeg  -25.7735 9.15177 -2.84832
LeftLeg  36.5744 6.69951 5.67516
LeftFoot  -7.13193 0.202168 -4.34386
LeftToes  2.00086e-010 -2.05915e-011 4.26721e-011
35
root  62.2864 39.5498 -34.0221 -158.865 -83.0744 159.269
RightUpLeg  5.13736 -9.78624 -5.16036
RightLeg  12.4808 -2.74235 2.47425
RightFoot  -17.8499 -0.0547237 1.15668
RightToes  1.16414e-010 0 -3.6325e-017
Spine  4.13494 1.61507 9.44617
Spine1  11.4838 4.06929 -7.29397
HEad  -14.2761 0.297086 -6.23345
LeftShoulder1  8.61681 -12.1421 -48.0706
LeftArm  -9.2468 17.328 -26.3169
LeftForeArm  23.5975 -15.8664 -4.36516
LeftHand  -0.244104 0.0205437 5.32207
RightShoulder  6.80349 10.7497 41.5011
RightArm  -4.74966 -10.412 33.6962
RightForeArm  -6.56143 17.6774 6.02277
RightHand  -0.201569 -3.09933 -9.65866
LeftUpLeg  -27.0806 10.5243 -4.71443
LeftLeg  30.0755 6.10692 4.16608
LeftFoot  -6.02486 0.240184 -4.38955
LeftToes  2.00086e-010 -2.05915e-011 4.26721e-011
36
root  61.5393 39.4541 -34.2023 -157.272 -83.3099 157.811
RightUpLeg  6.92236 -9.6167 -5.45903
RightLeg  11.3282 -3.02406 2.89196
RightFoot  -18.5316 -0.0233476 1.62627
RightToes  1.16414e-010 0 -3.6325e-017
Spine  4.16647 1.672 9.75612
Spine1  11.9367 4.3645 -8.18139
HEad  -15.7519 0.249441 -7.10756
LeftShoulder1  8.48509 -12.0226 -47.6945
LeftArm  -10.2732 17.5639 -25.652
LeftForeArm  22.048 -17.6118 -3.9714
LeftHand  -0.244104 0.0205437 5.32207
RightShoulder  6.90527 10.7601 42.1361
RightArm  -3.41095 -7.33795 33.7292
RightForeArm  -11.242 21.0229 5.63937
RightHand  -0.183509 -3.19678 -9.0985
LeftUpLeg  -27.7885 11.343 -6.15249
LeftLeg  23.1883 4.29687 2.41746
LeftFoot  -4.76216 0.286283 -4.48199
LeftToes  2.00086e-010 -2.05915e-011 4.26721e-011
37
root  60.702 39.3223 -34.3641 -157.989 -83.4554 158.638
RightUpLeg  8.82168 -9.38668 -5.53335
RightLeg  10.2694 -3.0905 3.22319
RightFoot  -19.0448 -0.00442459 1.85286
RightToes  1.16414e-010 0 -3.6325e-017
Spine  4.55031 2.00093 9.85229
Spine1  11.7101 4.74691 -8.40707
HEad  -16.4602 0.126047 -7.89663
LeftShoulder1  8.50564 -12.0551 -47.7104
LeftArm  -11.2151 17.9709 -25.0855
LeftForeArm  20.7589 -18.9278 -3.79692
LeftHand  -0.244104 0.0205437 5.32207
RightShoulder  6.76581 10.4731 42.1322
RightArm  -2.73156 -4.51741 33.8512
RightForeArm  -13.4591 24.3444 5.81256
RightHand  -0.243925 -2.72985 -10.1837
LeftUpLeg  -27.9404 11.4158 -6.8204
LeftLeg  16.4007 3.10552 0.968264
LeftFoot  -3.13437 0.318278 -4.18741
LeftToes  2.00086e-010 -2.05915e-011 4.26721e-011
38
root  59.7635 39.1514 -34.5176 -159.995 -83.2381 160.742
RightUpLeg  10.7458 -9.28631 -5.68574
RightLeg  9.46109 -2.66295 3.43284
RightFoot  -19.6068 0.0129263 2.01284
RightToes  1.16414e-010 0 -3.6325e-017
Spine  4.80262 2.40662 9.97269
Spine1  11.5535 5.32899 -8.96808
HEad  -16.9144 0.501042 -8.01945
LeftShoulder1  8.42364 -12.0419 -47.2829
LeftArm  -12.0543 18.3908 -25.0167
LeftForeArm  19.8647 -19.9684 -3.74133
LeftHand  -0.244104 0.0205437 5.32207
RightShoulder  6.68832 10.3167 42.1201
RightArm  -2.49024 -1.59169 33.9535
RightForeArm  -12.8106 26.9141 6.43544
RightHand  -0.345741 -2.02143 -11.7228
LeftUpLeg  -27.7613 8.98418 -5.48945
LeftLeg  11.1437 6.28381 -0.659863
LeftFoot  -1.67413 0.290919 -3.32053
LeftToes  2.00086e-010 -2.05915e-011 4.26721e-011
39
root  58.708 38.9174 -34.6488 -161.591 -82.9427 162.306
RightUpLeg  12.7791 -9.43921 -6.14717
RightLeg  9.11855 -1.83491 3.60895
RightFoot  -20.5211 0.0819267 2.74379
RightToes  1.16414e-010 0 -3.6325e-017
Spine  4.95656 2.69002 10.0022
Spine1  11.609 5.86796 -9.72355
HEad  -17.4538 1.12569 -7.62799
LeftShoulder1  8.29482 -11.996 -46.6856
LeftArm  -12.1199 18.6698 -25.0457
LeftForeArm  19.2617 -20.634 -3.76434
LeftHand  -0.244104 0.0205437 5.32207
RightShoulder  6.72357 10.4015 42.0817
RightArm  -2.21659 0.98085 34.0405
RightForeArm  -11.7541 29.0976 6.92167
RightHand  -0.408554 -1.56421 -12.2807
LeftUpLeg  -28.0215 7.0258 -4.33317
LeftLeg  9.23099 10.1187 -1.6282
LeftFoot  -1.34138 0.215261 -2.35781
LeftToes  2.00086e-010 -2.05915e-011 4.26721e-011
